<?xml version="1.0" standalone="no"?>
<!DOCTYPE svg PUBLIC "-//W3C//DTD SVG 20010904//EN"
 "http://www.w3.org/TR/2001/REC-SVG-20010904/DTD/svg10.dtd">
<svg version="1.0" xmlns="http://www.w3.org/2000/svg"
 width="1080.000000pt" height="1080.000000pt" viewBox="0 0 1080.000000 1080.000000"
 preserveAspectRatio="xMidYMid meet">
<metadata>
Created by potrace 1.14, written by Peter Selinger 2001-2017
</metadata>
<g transform="translate(0.000000,1080.000000) scale(0.100000,-0.100000)"
fill="#000000" stroke="none">
<path d="M5350 9037 l0 -1764 -1501 -1493 -1500 -1493 108 -109 108 -108 846
0 847 0 6 -23 c3 -12 6 -43 6 -68 0 -76 30 -228 65 -336 233 -702 972 -1109
1689 -928 579 147 1000 635 1059 1227 l13 123 677 3 677 2 0 150 0 150 -2092
0 c-1151 0 -2402 0 -2780 0 -379 0 -688 3 -688 7 0 5 623 627 1384 1383 l1384
1375 1 1833 1 1832 -155 0 -155 0 0 -1763z"/>
</g>
</svg>
