<?xml version="1.0" standalone="no"?>
<!DOCTYPE svg PUBLIC "-//W3C//DTD SVG 20010904//EN"
 "http://www.w3.org/TR/2001/REC-SVG-20010904/DTD/svg10.dtd">
<svg version="1.0" xmlns="http://www.w3.org/2000/svg"
 width="300.000000pt" height="300.000000pt" viewBox="0 0 300.000000 300.000000"
 preserveAspectRatio="xMidYMid meet">
<metadata>
Created by potrace 1.11, written by Peter Selinger 2001-2013
</metadata>
<g transform="translate(0.000000,300.000000) scale(0.100000,-0.100000)"
fill="#000000" stroke="none">
<path d="M0 2788 c0 -129 4 -207 9 -199 5 8 17 15 28 16 46 4 83 17 77 27 -5
7 0 9 14 6 13 -4 22 -1 22 5 0 6 3 8 6 4 4 -3 22 0 40 8 25 10 34 11 34 2 0
-8 2 -9 8 -1 11 17 48 34 75 34 13 0 27 3 31 8 4 4 11 7 14 8 4 0 14 4 22 7 8
4 33 9 55 12 61 9 70 10 80 17 6 3 20 4 33 3 12 -1 22 2 22 6 0 4 11 6 24 3
14 -2 27 0 31 5 3 6 12 8 20 5 7 -3 23 -1 34 6 13 7 21 7 21 1 0 -6 7 -8 15
-5 8 4 13 9 11 13 -4 6 21 10 74 12 14 0 28 6 32 12 5 8 8 4 8 -8 0 -15 2 -17
9 -6 5 8 16 11 25 8 8 -3 18 -2 22 4 4 6 11 6 20 -2 11 -9 15 -8 19 3 4 10 22
14 61 13 31 0 58 4 62 9 3 5 -1 6 -8 1 -8 -5 -11 -4 -7 2 6 9 32 9 74 2 4 -1
10 0 13 1 18 7 125 19 230 25 33 2 54 8 52 14 -1 7 5 7 18 -1 15 -10 27 -10
50 -1 16 6 32 8 35 4 2 -4 28 -6 57 -4 118 7 144 8 170 1 17 -4 29 -2 32 5 4
8 8 9 11 1 3 -6 22 -9 43 -6 54 5 55 5 76 -4 13 -5 17 -4 13 3 -8 12 11 12 31
0 6 -5 12 -5 12 -1 0 3 8 0 17 -7 11 -10 14 -10 9 -1 -9 15 -5 15 28 2 14 -5
27 -6 30 -2 5 9 64 8 73 -1 3 -4 13 -1 21 6 13 9 14 9 8 0 -5 -9 0 -13 16 -14
13 0 48 -3 78 -5 30 -3 66 -4 79 -4 12 0 28 -3 34 -7 6 -4 26 -8 44 -9 19 -1
40 -7 48 -14 12 -10 15 -10 15 0 0 9 4 9 13 2 6 -5 32 -12 57 -13 25 -2 47 -7
50 -10 3 -4 21 -8 40 -10 19 -2 40 -5 45 -8 15 -8 46 -14 120 -23 11 -2 23 -7
27 -13 5 -6 12 -5 19 2 10 10 17 9 31 -4 10 -9 18 -13 18 -8 0 4 7 2 15 -5 8
-7 15 -9 15 -6 0 4 9 2 20 -4 15 -8 20 -8 20 2 1 8 7 5 15 -6 8 -11 15 -14 15
-7 0 7 5 9 10 6 6 -4 10 47 10 144 l0 151 -1500 0 -1500 0 0 -212z"/>
<path d="M1503 1500 c9 -6 17 -16 17 -23 0 -7 14 -13 31 -13 17 -1 35 -7 40
-15 6 -10 9 -4 9 19 0 24 -4 32 -17 32 -10 0 -36 3 -58 6 -32 4 -36 3 -22 -6z"/>
<path d="M1524 1427 c-3 -10 -16 -12 -48 -7 -77 12 -77 12 -75 -224 2 -163 5
-206 15 -206 11 0 14 44 17 213 l2 212 3 -217 2 -218 25 0 c17 0 23 -4 19 -14
-3 -8 2 -16 13 -19 10 -3 -51 -4 -135 -3 -129 1 -153 3 -157 17 -7 20 -84 25
-89 6 -7 -19 -15 -93 -9 -79 7 17 63 16 63 -2 0 -7 3 -28 6 -45 6 -30 6 -31
-30 -31 -20 0 -36 -4 -36 -10 0 -5 -6 -10 -12 -10 -10 0 -13 23 -12 87 1 49 0
76 -3 61 -4 -29 -17 -34 -43 -18 -9 6 -17 5 -22 -3 -5 -8 -8 -7 -8 5 0 11 -5
15 -14 12 -10 -4 -16 -23 -18 -52 -5 -81 -23 -46 -26 50 -3 86 -9 107 -34 108
-5 0 -9 -17 -10 -37 -1 -37 -1 -37 -5 -5 -3 19 -10 32 -19 32 -11 0 -14 -24
-14 -132 0 -72 -2 -129 -4 -127 -2 2 -6 61 -8 132 -1 70 -6 127 -10 127 -5 0
-8 -20 -8 -45 0 -33 -4 -45 -15 -45 -11 0 -15 11 -15 38 0 63 -9 82 -39 81
l-26 -1 25 -8 c23 -7 22 -8 -9 -9 -39 -1 -32 -16 9 -24 20 -3 18 -5 -9 -6 -38
-1 -33 -16 9 -24 20 -3 18 -5 -9 -6 -38 -1 -33 -16 9 -24 21 -4 20 -4 -7 -6
-43 -1 -43 -19 0 -24 l32 -4 -32 -1 c-41 -2 -44 -22 -3 -22 17 0 30 -4 30 -8
0 -12 -73 -7 -78 6 -2 7 -21 12 -42 12 l-39 0 -4 -67 -3 -68 -2 68 c-2 53 -5
67 -18 67 -8 0 -12 -4 -9 -10 3 -5 1 -10 -4 -10 -14 0 -14 27 -1 35 14 9 13
155 -2 155 -19 0 -79 51 -72 61 4 7 -7 9 -27 7 l-34 -3 1 -127 c1 -71 -2 -128
-7 -128 -5 0 -10 10 -11 23 -1 12 -4 -5 -7 -38 l-6 -60 -42 -3 -43 -3 0 245
c0 135 -1 246 -3 246 -1 0 -17 4 -35 10 -28 7 -33 7 -28 -5 3 -8 1 -17 -4 -20
-6 -4 -10 1 -10 9 0 9 -7 16 -15 16 -8 0 -15 -9 -15 -21 0 -11 -4 -17 -10 -14
-5 3 -10 2 -10 -3 0 -5 -15 -7 -32 -5 -18 2 -26 0 -18 -3 8 -3 22 -8 30 -11
10 -4 5 -9 -15 -13 -29 -7 -29 -8 8 -9 21 0 36 3 32 8 -3 5 -1 12 5 16 5 3 10
1 10 -5 0 -6 5 -8 10 -5 15 9 12 -5 -5 -22 -10 -10 -28 -14 -50 -11 -19 2 -35
0 -35 -4 0 -4 18 -8 40 -8 22 0 40 -5 40 -11 0 -7 -14 -8 -42 -4 -52 9 -47 -1
8 -14 l39 -9 -45 -2 c-25 -1 -36 -4 -25 -7 68 -14 71 -17 25 -23 l-45 -7 43
-1 c23 -1 42 -7 42 -13 0 -7 -10 -9 -25 -7 -14 3 -25 1 -25 -3 0 -5 12 -10 28
-11 15 0 5 -4 -23 -8 l-50 -7 40 -2 c22 -1 49 -6 60 -11 15 -6 6 -9 -35 -11
l-55 -2 47 -6 c69 -10 71 -22 2 -15 -32 4 -56 3 -52 -1 7 -8 30 -13 78 -16 26
-2 19 -4 -25 -9 -52 -6 -54 -7 -20 -9 71 -4 87 -20 21 -20 -72 -1 -71 -9 2
-12 28 -2 52 -6 52 -10 0 -4 -26 -5 -57 -2 -32 3 -55 2 -51 -2 7 -8 31 -13 78
-16 26 -2 19 -4 -25 -9 -52 -6 -54 -7 -20 -9 73 -4 86 -19 20 -22 l-60 -2 60
-7 c46 -5 52 -7 25 -9 -19 -2 -45 -2 -57 -1 -13 1 -23 -3 -23 -9 0 -6 7 -8 15
-5 8 4 15 1 15 -4 0 -6 -8 -13 -18 -15 -9 -3 2 -5 26 -6 23 0 42 -5 42 -10 0
-6 -18 -9 -40 -8 -41 3 -44 0 -42 -49 1 -18 -5 -22 -41 -23 -23 0 -55 -5 -72
-10 l-30 -9 28 -1 c26 -1 27 -2 27 -62 0 -60 -1 -61 -25 -57 l-24 5 0 -303 -1
-304 104 0 c74 0 106 4 109 13 4 10 6 10 6 0 1 -10 119 -13 557 -13 421 0 553
3 548 12 -5 8 -2 9 12 2 10 -5 120 -10 243 -12 194 -2 223 -1 218 12 -4 10 -1
13 8 9 8 -3 13 -8 10 -12 -2 -5 78 -9 179 -10 l184 -2 6 26 c4 14 11 23 16 20
6 -4 8 -11 5 -16 -4 -5 -1 -9 5 -9 6 0 9 -4 6 -8 -8 -14 76 -13 92 1 13 10 14
9 8 -1 -6 -10 15 -12 104 -11 69 2 105 6 94 11 -13 6 -11 6 6 1 44 -12 423
-16 415 -4 -3 6 -1 11 4 11 6 0 11 -4 11 -10 0 -5 11 -10 25 -10 l25 0 0 280
0 280 -29 0 c-15 0 -49 -3 -75 -6 l-46 -7 -2 -106 -2 -106 -5 105 -6 105 -40
-1 c-22 -1 -66 -3 -98 -4 -46 -2 -61 2 -73 16 -9 11 -13 14 -10 8 6 -13 -82
-35 -90 -23 -3 5 0 9 7 9 7 0 10 3 6 6 -3 4 -14 3 -24 0 -15 -6 -15 -8 -3 -17
13 -8 13 -10 1 -18 -9 -6 -21 -5 -33 2 -17 11 -18 13 -1 26 17 13 17 13 0 7
-10 -3 -21 -6 -23 -6 -13 0 -1 -29 14 -33 16 -4 16 -5 -1 -6 -10 0 -15 -5 -12
-11 3 -5 2 -10 -4 -10 -16 0 -22 18 -9 23 8 3 6 6 -4 6 -10 1 -18 -4 -18 -10
0 -5 -4 -7 -10 -4 -13 8 -6 50 8 51 7 1 15 3 20 4 4 1 10 2 15 1 4 0 7 4 7 10
0 5 5 7 10 4 6 -3 10 -1 10 5 0 6 -11 8 -27 4 -16 -3 -44 -6 -63 -6 -24 0 -28
-2 -11 -5 23 -5 23 -5 2 -19 -11 -8 -18 -21 -15 -28 7 -18 -15 -31 -28 -18 -6
6 -17 8 -26 5 -10 -4 -13 -2 -8 5 4 7 15 12 26 12 10 0 20 6 22 12 9 23 -3 38
-30 37 -15 0 -20 -3 -12 -6 8 -2 22 -7 30 -10 10 -3 4 -9 -18 -18 -18 -8 -36
-24 -42 -37 -5 -14 -9 -17 -9 -8 -1 9 4 21 10 27 17 17 -6 25 -44 15 -27 -8
-36 -6 -44 7 -12 19 -6 41 11 41 6 0 12 9 13 20 1 11 -3 20 -9 20 -6 0 -8 3
-5 6 4 4 13 1 21 -5 12 -10 14 -9 9 8 -3 12 -10 21 -15 21 -5 0 -6 5 -3 10 9
14 -4 52 -16 45 -5 -4 -9 11 -9 33 0 35 3 39 23 37 12 -1 28 -3 35 -4 14 -1
17 -67 2 -76 -14 -9 -12 -63 2 -67 7 -3 36 -1 65 4 35 5 61 5 73 -2 11 -6 20
-7 20 -2 0 7 94 9 110 2 3 -1 49 -2 103 -1 54 1 105 -2 113 -7 9 -5 35 -6 59
-2 25 4 46 3 47 -2 2 -5 34 -5 75 0 50 6 74 5 78 -2 3 -6 3 15 2 46 -2 32 -6
60 -8 62 -2 2 -29 6 -59 8 l-55 3 -11 55 -12 55 -2 -55 c-1 -30 -4 -47 -7 -37
-4 17 -6 17 -20 -3 l-16 -22 -23 28 c-23 26 -25 26 -43 10 -11 -10 -22 -13
-25 -8 -3 6 -15 8 -26 5 -18 -5 -20 0 -20 36 0 29 -4 41 -14 41 -8 0 -16 -6
-18 -12 -3 -7 -8 6 -11 30 -4 23 -12 42 -18 42 -5 0 -7 5 -3 12 5 8 2 9 -10 5
-10 -4 -20 -7 -22 -7 -2 0 -4 -4 -4 -10 0 -5 6 -9 13 -7 8 1 12 -18 13 -70 1
-40 -2 -73 -7 -73 -5 0 -9 14 -9 31 0 17 -4 28 -10 24 -5 -3 -10 -17 -10 -30
0 -13 -5 -27 -11 -31 -7 -4 -9 0 -5 14 4 11 2 23 -4 27 -7 4 -14 -2 -17 -13
-3 -12 -11 -18 -18 -15 -8 2 -11 11 -8 19 3 8 0 14 -7 14 -8 0 -11 9 -7 26 2
14 -2 31 -9 39 -11 10 -11 15 -1 18 6 3 -5 6 -26 6 -35 1 -37 0 -35 -29 2 -26
6 -30 30 -30 24 0 28 -4 28 -30 0 -31 -5 -33 -52 -30 -16 1 -28 -4 -28 -10 0
-6 -5 -8 -10 -5 -6 4 -8 12 -4 18 3 7 -1 4 -9 -6 -29 -35 -57 -16 -57 38 0 17
-6 25 -22 27 -21 3 -21 4 -4 21 15 15 15 17 2 17 -13 0 -16 13 -16 70 0 38 -5
90 -12 115 l-12 45 -56 0 c-31 0 -61 5 -68 12 -6 6 -15 8 -19 5 -8 -9 -5 -156
4 -170 3 -5 -7 -20 -23 -34 -24 -20 -26 -26 -14 -34 13 -9 13 -10 0 -7 -33 5
-70 -12 -70 -33 0 -11 -4 -18 -9 -15 -5 3 -11 -1 -15 -9 -3 -9 1 -16 9 -16 8
-1 21 -2 28 -3 7 0 13 -19 15 -43 3 -37 1 -41 -17 -36 -12 3 -21 1 -21 -6 0
-6 6 -11 13 -11 8 0 7 -4 -3 -10 -10 -7 12 -10 73 -10 76 0 87 -2 87 -18 0 -9
-9 -23 -20 -30 -11 -7 -20 -18 -20 -25 0 -8 -10 -13 -22 -12 -23 2 -58 -32
-58 -55 0 -6 -4 -9 -10 -5 -5 3 -20 3 -34 -1 -18 -4 -23 -10 -18 -22 5 -15 4
-15 -12 1 -20 19 -58 22 -87 7 -15 -8 -23 -7 -35 5 -14 13 -12 15 19 15 29 0
37 5 45 28 6 15 11 20 11 11 1 -17 28 -34 46 -30 6 2 21 3 34 3 13 0 32 8 42
16 25 22 25 52 -1 52 -15 0 -20 7 -20 25 0 24 0 24 -41 10 -160 -57 -604 -80
-946 -49 -62 6 -73 10 -73 25 0 11 5 19 10 19 6 0 10 -7 10 -15 0 -11 11 -15
41 -15 29 0 38 3 33 12 -10 15 -5 108 6 128 13 22 23 -28 18 -90 l-3 -50 78 0
c44 0 77 4 77 10 0 6 21 10 46 10 27 0 43 -4 39 -10 -3 -5 -1 -10 4 -10 6 0
11 5 11 11 0 6 6 9 13 6 8 -3 20 -2 27 3 9 6 7 10 -9 15 -29 9 -27 25 4 25 19
0 25 -5 25 -23 0 -16 6 -23 19 -23 11 0 17 4 15 8 -3 4 5 9 18 9 43 3 93 -3
98 -12 10 -15 222 3 380 32 l55 11 -3 53 c-2 30 -9 58 -15 64 -9 7 -11 -5 -9
-48 3 -46 0 -60 -12 -64 -13 -5 -16 3 -17 46 -1 29 -1 58 0 65 1 6 -3 12 -9
12 -8 0 -15 -60 -12 -100 0 -3 -50 -3 -111 -1 -62 3 -101 6 -87 9 14 2 29 8
35 13 5 5 22 9 37 9 30 0 30 -1 32 88 0 31 5 44 19 48 15 5 18 15 16 63 -2 53
-4 58 -32 71 -23 10 -37 10 -59 2 l-28 -10 0 111 c0 99 -3 117 -27 169 l-27
58 -28 -47 c-27 -46 -28 -53 -28 -185 0 -120 2 -138 18 -147 15 -9 15 -10 1
-11 -9 0 -20 7 -23 16 -3 9 -7 118 -7 242 -1 125 -3 220 -6 211 -3 -11 -12
-14 -33 -11 -31 4 -39 17 -17 25 9 4 9 6 -1 6 -7 1 -15 -5 -18 -12z m53 -299
c-3 -8 -6 -5 -6 6 -1 11 2 17 5 13 3 -3 4 -12 1 -19z m90 -40 c-3 -8 -6 -5 -6
6 -1 11 2 17 5 13 3 -3 4 -12 1 -19z m493 -37 c0 -11 -4 -23 -10 -26 -6 -4
-10 5 -10 19 0 14 5 26 10 26 6 0 10 -9 10 -19z m-1219 -246 c5 16 6 16 5 2
-1 -10 -5 -18 -11 -17 -6 0 -10 48 -11 122 l0 123 5 -125 c3 -69 9 -116 12
-105z m776 140 c11 -8 7 -13 -17 -22 -16 -6 -30 -7 -30 -2 0 5 7 9 15 9 11 0
14 7 10 28 -3 15 -2 20 2 12 3 -8 12 -20 20 -25z m69 -31 l0 -26 -18 22 c-10
12 -18 17 -18 11 0 -6 -5 -11 -11 -11 -8 0 -8 5 1 15 21 25 46 19 46 -11z
m-526 12 c0 -2 -7 -6 -15 -10 -8 -3 -15 -1 -15 4 0 6 7 10 15 10 8 0 15 -2 15
-4z m37 -2 c-3 -3 -12 -4 -19 -1 -8 3 -5 6 6 6 11 1 17 -2 13 -5z m46 -1 c-7
-2 -19 -2 -25 0 -7 3 -2 5 12 5 14 0 19 -2 13 -5z m47 3 c0 -11 -19 -15 -25
-6 -3 5 1 10 9 10 9 0 16 -2 16 -4z m216 -14 c-3 -6 -16 -7 -29 -4 -22 6 -22
6 3 12 28 8 35 6 26 -8z m-118 1 c-10 -2 -15 -10 -11 -19 3 -8 -1 -14 -11 -14
-9 0 -16 8 -16 20 0 15 6 20 28 19 15 -1 20 -3 10 -6z m682 -48 c0 -21 -5 -35
-12 -36 -10 0 -10 -2 0 -6 13 -5 17 -43 4 -43 -4 0 -7 -19 -5 -42 1 -24 -1
-33 -3 -20 -3 12 -13 22 -22 23 -11 0 -12 3 -4 6 17 7 15 23 -3 23 -9 0 -15 9
-15 21 0 15 5 19 15 15 11 -4 16 6 21 44 8 57 24 67 24 15z m-563 9 c-3 -3
-12 -4 -19 -1 -8 3 -5 6 6 6 11 1 17 -2 13 -5z m180 -26 c-3 -7 -5 -2 -5 12 0
14 2 19 5 13 2 -7 2 -19 0 -25z m-997 12 c0 -5 -11 -10 -24 -10 -14 0 -28 5
-31 10 -4 6 7 10 24 10 17 0 31 -4 31 -10z m410 -22 c0 -36 -4 -35 -14 5 -4
16 -2 27 4 27 5 0 10 -14 10 -32z m277 26 c-3 -3 -12 -4 -19 -1 -8 3 -5 6 6 6
11 1 17 -2 13 -5z m980 -20 c-3 -3 -12 -4 -19 -1 -8 3 -5 6 6 6 11 1 17 -2 13
-5z m-1667 -16 c0 -5 -11 -8 -25 -8 -14 0 -25 3 -25 8 0 4 11 7 25 7 14 0 25
-3 25 -7z m687 6 c-3 -3 -12 -4 -19 -1 -8 3 -5 6 6 6 11 1 17 -2 13 -5z
m-1027 -29 c0 -8 -4 -15 -10 -15 -5 0 -10 7 -10 15 0 8 5 15 10 15 6 0 10 -7
10 -15z m1020 5 c0 -5 -4 -10 -10 -10 -5 0 -10 5 -10 10 0 6 5 10 10 10 6 0
10 -4 10 -10z m-977 -7 c-7 -2 -19 -2 -25 0 -7 3 -2 5 12 5 14 0 19 -2 13 -5z
m-285 -10 c-10 -2 -26 -2 -35 0 -10 3 -2 5 17 5 19 0 27 -2 18 -5z m579 1 c-3
-3 -12 -4 -19 -1 -8 3 -5 6 6 6 11 1 17 -2 13 -5z m-297 -12 c0 -5 -7 -9 -15
-9 -8 0 -15 4 -15 9 0 4 7 8 15 8 8 0 15 -4 15 -8z m-270 -12 c0 -5 -13 -10
-30 -10 -16 0 -30 5 -30 10 0 6 14 10 30 10 17 0 30 -4 30 -10z m890 -11 c0
-5 -7 -9 -15 -9 -15 0 -20 12 -9 23 8 8 24 -1 24 -14z m-750 -1 c0 6 10 12 22
12 l22 0 -22 -16 c-12 -8 -22 -24 -22 -35 0 -10 -4 -19 -10 -19 -5 0 -10 17
-10 38 0 27 3 33 10 22 6 -10 10 -11 10 -2z m423 5 c-7 -2 -21 -2 -30 0 -10 3
-4 5 12 5 17 0 24 -2 18 -5z m111 -18 c4 -10 -1 -15 -17 -16 -17 -1 -16 -3 8
-9 23 -6 16 -8 -36 -9 -52 -1 -66 2 -66 14 0 10 10 15 28 15 15 0 31 5 34 10
9 15 42 12 49 -5z m583 9 c-3 -3 -12 -4 -19 -1 -8 3 -5 6 6 6 11 1 17 -2 13
-5z m-1264 -11 c-7 -2 -21 -2 -30 0 -10 3 -4 5 12 5 17 0 24 -2 18 -5z m1264
-39 c-3 -3 -12 -4 -19 -1 -8 3 -5 6 6 6 11 1 17 -2 13 -5z m-612 -14 c-22 -5
-44 -4 -49 1 -6 5 10 9 40 8 l49 -1 -40 -8z m345 0 c0 -5 -4 -10 -10 -10 -5 0
-10 5 -10 10 0 6 5 10 10 10 6 0 10 -4 10 -10z m-305 -20 c4 -6 -11 -10 -37
-9 -33 0 -38 2 -23 9 28 12 53 12 60 0z m572 4 c-3 -3 -12 -4 -19 -1 -8 3 -5
6 6 6 11 1 17 -2 13 -5z m-1037 -44 c13 -8 13 -10 -2 -10 -9 0 -20 5 -23 10
-8 13 5 13 25 0z m500 -10 c12 -8 9 -10 -13 -10 -16 0 -26 4 -22 10 8 12 16
12 35 0z m-708 -34 c55 3 56 3 40 13 -10 6 -7 10 12 13 15 3 23 1 19 -5 -3 -6
6 -8 25 -5 30 4 34 -8 11 -38 -5 -6 -6 -14 -2 -17 3 -4 -5 -7 -18 -7 -14 0
-30 5 -35 10 -15 15 -53 20 -60 9 -4 -6 -11 -6 -20 2 -11 9 -14 8 -14 -2 0
-10 -3 -10 -12 -1 -14 14 -54 16 -62 3 -4 -5 -3 -11 1 -14 5 -2 3 -2 -4 -1 -7
2 -19 -3 -27 -11 -19 -19 -26 -19 -26 0 0 8 7 15 15 15 9 0 18 7 21 15 4 8 10
12 15 9 5 -3 9 4 9 16 0 12 5 18 10 15 6 -4 8 -11 5 -16 -4 -5 1 -9 9 -9 10 0
16 9 16 22 0 22 0 22 14 2 11 -16 24 -20 58 -18z m173 4 c3 -5 2 -10 -4 -10
-5 0 -13 5 -16 10 -3 6 -2 10 4 10 5 0 13 -4 16 -10z m45 0 c0 -5 -7 -7 -15
-4 -8 4 -15 8 -15 10 0 2 7 4 15 4 8 0 15 -4 15 -10z m-84 -36 c-3 -8 -10 -13
-16 -9 -6 4 -5 13 3 26 13 21 23 8 13 -17z m179 26 c3 -5 1 -10 -4 -10 -6 0
-11 5 -11 10 0 6 2 10 4 10 3 0 8 -4 11 -10z m-455 -10 c0 -5 -2 -10 -4 -10
-3 0 -8 5 -11 10 -3 6 -1 10 4 10 6 0 11 -4 11 -10z m905 -21 c4 -10 13 -19
21 -19 8 0 14 -5 14 -10 0 -7 -6 -7 -19 -1 -10 6 -22 7 -26 3 -3 -4 -5 -2 -4
3 2 6 -2 20 -9 32 -11 19 -10 22 2 17 9 -3 18 -14 21 -25z m145 11 c0 -5 -4
-10 -10 -10 -5 0 -10 5 -10 10 0 6 5 10 10 10 6 0 10 -4 10 -10z m114 -2 c-3
-4 -18 -8 -35 -8 -19 0 -29 -5 -29 -15 0 -8 -4 -15 -10 -15 -5 0 -7 7 -4 15 4
10 0 15 -11 15 -9 0 -14 3 -12 8 3 4 28 7 56 8 27 0 48 -3 45 -8z m92 4 c9 -5
8 -11 -2 -20 -8 -7 -14 -8 -14 -2 0 5 -7 10 -15 10 -8 0 -15 5 -15 10 0 12 30
13 46 2z m449 -48 c-6 -7 -16 -9 -25 -4 -13 7 -15 3 -12 -26 5 -38 -16 -49
-25 -13 -5 17 -11 20 -37 15 -17 -3 -62 -8 -99 -12 -43 -4 -64 -10 -55 -15 10
-7 9 -9 -4 -9 -9 0 -20 5 -23 10 -4 6 -20 9 -36 6 -23 -3 -29 -1 -29 15 0 22
4 23 30 9 12 -6 57 -6 131 1 118 11 171 29 86 29 -26 0 -47 4 -47 9 0 6 28 8
65 5 58 -4 64 -3 58 13 -5 14 -3 13 13 -3 14 -13 17 -22 9 -30z m-1295 24 c0
-4 -17 -9 -37 -11 -35 -3 -34 -4 9 -5 40 -2 46 0 41 15 -5 12 -3 14 8 8 7 -5
28 -8 45 -6 18 1 35 -2 39 -8 4 -7 -5 -11 -22 -12 -25 0 -26 -1 -8 -10 15 -7
9 -8 -25 -5 -43 4 -44 3 -16 -9 22 -9 25 -13 12 -18 -9 -4 -23 -3 -33 0 -11 4
-14 3 -9 -5 5 -8 2 -10 -8 -6 -9 3 -14 10 -11 14 2 4 -23 13 -58 20 -85 18
-103 29 -47 30 35 1 40 3 25 10 -14 6 -3 8 38 7 31 -1 57 -5 57 -9z m1895 2
c3 -5 -1 -10 -10 -10 -9 0 -13 5 -10 10 3 6 8 10 10 10 2 0 7 -4 10 -10z
m-1738 -25 c-9 -7 -14 -15 -10 -18 3 -4 -1 -7 -10 -7 -19 0 -23 15 -7 25 6 4
8 10 5 15 -3 4 5 6 16 3 20 -6 20 -7 6 -18z m97 0 c-4 -8 -8 -15 -10 -15 -2 0
-4 7 -4 15 0 8 4 15 10 15 5 0 7 -7 4 -15z m55 3 c8 13 63 3 58 -11 -2 -6 -9
-13 -17 -15 -9 -3 -10 0 -4 9 7 12 5 12 -9 0 -21 -17 -47 -8 -46 16 0 12 2 14
6 4 3 -8 8 -9 12 -3z m444 5 c-7 -2 -19 -2 -25 0 -7 3 -2 5 12 5 14 0 19 -2
13 -5z m185 0 c-10 -2 -26 -2 -35 0 -10 3 -2 5 17 5 19 0 27 -2 18 -5z m822 3
c0 -3 -4 -8 -10 -11 -5 -3 -10 -1 -10 4 0 6 5 11 10 11 6 0 10 -2 10 -4z
m-1356 -21 c3 -8 11 -15 18 -14 10 0 10 2 1 6 -22 8 -14 23 10 19 12 -3 29 -5
37 -5 13 -1 13 -2 0 -11 -10 -6 -11 -10 -2 -10 6 0 12 -4 12 -9 0 -6 -12 -8
-27 -7 -16 2 -33 4 -38 5 -13 1 -38 41 -26 41 5 0 11 -7 15 -15z m1318 -5 c-2
-8 3 -10 15 -6 14 6 15 4 6 -5 -6 -6 -10 -17 -9 -23 2 -6 1 -8 -1 -3 -3 4 -12
7 -20 7 -9 0 -13 6 -9 15 3 8 1 15 -5 15 -6 0 -7 5 -4 11 9 13 31 5 27 -11z
m-1177 -10 c-3 -5 -13 -10 -21 -10 -8 0 -12 5 -9 10 3 6 13 10 21 10 8 0 12
-4 9 -10z m-395 -39 c0 -13 -2 -13 -9 -2 -5 7 -14 10 -20 7 -11 -7 -16 6 -5
17 10 10 34 -5 34 -22z m214 13 c9 -23 7 -36 -3 -30 -12 8 -21 46 -11 46 4 0
11 -7 14 -16z m359 9 c-7 -2 -21 -2 -30 0 -10 3 -4 5 12 5 17 0 24 -2 18 -5z
m-748 -13 c3 -5 2 -10 -4 -10 -5 0 -13 5 -16 10 -3 6 -2 10 4 10 5 0 13 -4 16
-10z m529 -5 c-4 -9 3 -16 20 -21 14 -3 26 -10 26 -15 0 -6 -10 -4 -22 2 -13
7 -24 11 -26 10 -8 -6 -101 13 -96 20 3 5 23 6 45 3 26 -4 39 -3 39 5 0 6 4
11 10 11 5 0 7 -7 4 -15z m66 -1 c0 -2 -9 -4 -20 -4 -11 0 -20 4 -20 9 0 5 9
7 20 4 11 -3 20 -7 20 -9z m308 -8 c102 -26 111 -30 87 -39 -8 -4 -15 -3 -15
2 0 5 -41 19 -92 31 -80 19 -92 20 -99 7 -7 -11 -17 -13 -44 -7 -39 9 -47 -4
-17 -26 14 -11 10 -11 -23 -1 -23 7 -33 13 -22 15 9 2 17 10 17 19 0 13 8 14
41 9 26 -4 38 -3 34 4 -10 16 32 12 133 -14z m307 14 c-27 -12 -43 -12 -25 0
8 5 22 9 30 9 10 0 8 -3 -5 -9z m-85 -12 c0 -3 -9 -6 -20 -5 -11 1 -20 5 -20
9 0 3 9 6 20 5 11 -1 20 -5 20 -9z m40 8 c0 -3 -4 -8 -10 -11 -5 -3 -10 -1
-10 4 0 6 5 11 10 11 6 0 10 -2 10 -4z m-525 -16 c13 -6 15 -9 5 -9 -8 0 -22
4 -30 9 -18 12 -2 12 25 0z m593 -5 c-3 -3 -18 -8 -34 -11 -19 -3 -25 -2 -19
4 17 17 69 23 53 7z m1080 8 c-10 -2 -28 -2 -40 0 -13 2 -5 4 17 4 22 1 32 -1
23 -4z m-971 -34 c-14 -8 -16 -14 -7 -24 7 -8 13 -26 15 -42 1 -16 18 -41 39
-60 20 -18 32 -33 28 -33 -4 0 -22 14 -41 31 -26 26 -35 29 -42 18 -7 -12 -9
-12 -10 1 -1 8 -1 22 0 30 1 8 -5 4 -12 -9 -10 -17 -16 -20 -22 -11 -4 7 -3
15 2 19 6 3 7 15 2 26 -7 19 -8 19 -8 -3 -1 -13 -5 -21 -10 -18 -17 11 2 48
33 67 17 10 27 19 21 19 -5 0 -17 -4 -25 -9 -8 -6 -18 -7 -24 -4 -5 3 6 11 25
18 38 13 66 0 36 -16z m-374 -12 c26 -7 45 -16 41 -19 -3 -4 -12 -4 -20 -1
-12 4 -14 0 -9 -20 4 -13 2 -28 -4 -31 -11 -7 -33 26 -29 45 2 6 -18 17 -44
25 -26 8 -49 18 -52 23 -6 9 20 4 117 -22z m197 29 c0 -11 -19 -15 -25 -6 -3
5 1 10 9 10 9 0 16 -2 16 -4z m-683 -28 c-3 -8 -6 -5 -6 6 -1 11 2 17 5 13 3
-3 4 -12 1 -19z m555 10 c2 -6 19 -11 38 -10 31 1 120 -41 128 -60 2 -4 13 -3
24 3 15 8 19 8 14 0 -4 -7 1 -11 13 -11 12 0 21 -4 21 -10 0 -5 -8 -7 -17 -3
-10 3 -15 3 -11 -1 3 -4 14 -9 25 -11 10 -2 19 -4 21 -4 1 -1 4 -1 7 -1 3 1
17 -8 32 -19 14 -12 30 -18 37 -14 6 3 8 3 4 -2 -10 -11 29 -38 42 -30 18 11
22 -21 6 -56 l-15 -34 6 31 c4 28 -6 47 -27 49 -11 2 -76 38 -92 53 -15 12
-18 13 -18 1 0 -11 -2 -11 -8 -2 -11 17 -166 100 -202 108 -28 6 -63 35 -42
35 6 0 12 -5 14 -12z m45 6 c-3 -3 -12 -4 -19 -1 -8 3 -5 6 6 6 11 1 17 -2 13
-5z m643 2 c0 -3 -4 -8 -10 -11 -5 -3 -10 -1 -10 4 0 6 5 11 10 11 6 0 10 -2
10 -4z m-1185 -36 c3 -5 1 -10 -4 -10 -6 0 -11 5 -11 10 0 6 2 10 4 10 3 0 8
-4 11 -10z m173 -18 c2 -7 -5 -7 -22 1 -14 7 -26 15 -26 19 0 11 43 -7 48 -20z
m92 15 c0 -5 19 -8 43 -7 65 3 75 0 43 -14 l-29 -13 26 -23 c15 -13 52 -38 84
-56 32 -18 52 -34 44 -34 -8 0 -36 14 -63 30 -27 17 -53 28 -59 25 -5 -4 -9 0
-9 7 0 7 -27 31 -60 52 -33 22 -60 41 -60 42 0 2 9 2 20 1 11 -1 20 -5 20 -10z
m-290 -1 c0 -11 -19 -15 -25 -6 -3 5 1 10 9 10 9 0 16 -2 16 -4z m575 -16 c11
-4 29 -17 39 -29 16 -17 22 -19 35 -9 9 7 13 8 9 4 -4 -5 -3 -15 3 -23 6 -7 8
-13 3 -13 -4 0 7 -16 26 -35 36 -37 53 -45 44 -20 -4 8 -9 13 -14 10 -4 -2
-17 6 -29 19 -19 20 -20 24 -6 36 12 10 15 10 15 -3 0 -18 65 -59 97 -61 11 0
19 -4 16 -8 -4 -7 12 -12 30 -9 4 0 7 -3 7 -9 0 -5 8 -7 18 -4 13 4 14 4 4 -4
-8 -5 -16 -27 -19 -48 -3 -22 -7 -41 -9 -43 -2 -2 4 -10 14 -17 41 -32 -18 -6
-238 104 -129 64 -236 122 -238 128 -1 6 5 14 14 18 12 4 15 2 10 -9 -4 -10 1
-15 14 -15 10 0 23 -6 27 -14 20 -34 102 -55 111 -28 7 22 20 12 15 -10 -4
-19 -3 -20 6 -8 17 24 13 58 -8 70 -28 14 -29 14 -37 -24 -4 -22 -11 -33 -19
-30 -9 4 -8 14 6 41 17 34 18 37 1 50 -15 13 -15 13 8 7 14 -4 34 -10 45 -14z
m-1325 -10 c0 -5 -4 -10 -10 -10 -5 0 -10 5 -10 10 0 6 5 10 10 10 6 0 10 -4
10 -10z m915 -18 c-11 -3 -23 -9 -27 -16 -5 -7 -8 -5 -8 6 0 19 18 28 40 19
12 -4 10 -6 -5 -9z m322 -14 c-3 -7 -5 -2 -5 12 0 14 2 19 5 13 2 -7 2 -19 0
-25z m33 22 c0 -5 -5 -10 -11 -10 -5 0 -7 5 -4 10 3 6 8 10 11 10 2 0 4 -4 4
-10z m563 -26 c-4 -12 -8 -13 -14 -3 -9 15 -2 32 11 24 5 -3 6 -13 3 -21z
m652 6 c3 -5 -1 -10 -10 -10 -9 0 -13 5 -10 10 3 6 8 10 10 10 2 0 7 -4 10
-10z m-1465 -66 c38 -15 70 -31 70 -36 0 -5 -9 -4 -21 2 -28 15 -38 4 -13 -15
27 -20 15 -18 -34 5 -22 11 -49 20 -59 20 -10 0 -28 7 -39 15 -12 8 -24 12
-26 9 -3 -2 -17 0 -32 5 -31 13 -36 36 -5 26 15 -5 19 -4 15 4 -4 6 -13 11
-21 11 -8 0 -16 4 -19 9 -7 11 88 -17 184 -55z m702 54 c-14 -14 -16 -32 -3
-23 5 3 12 1 15 -4 3 -5 -1 -12 -9 -15 -21 -8 -31 20 -15 39 7 8 15 15 18 15
3 0 1 -5 -6 -12z m-666 -13 c22 -17 38 -20 29 -5 -3 6 -1 10 5 10 7 0 10 -6 7
-14 -4 -9 6 -23 26 -35 39 -25 30 -27 -21 -4 -20 9 -40 15 -44 15 -5 -1 -7 2
-5 7 1 5 -7 17 -18 25 -11 8 -15 16 -9 16 5 0 19 -7 30 -15z m634 -6 c0 -6 -4
-7 -10 -4 -5 3 -10 11 -10 16 0 6 5 7 10 4 6 -3 10 -11 10 -16z m90 13 c0 -2
-6 -10 -14 -17 -12 -12 -15 -12 -19 5 -3 14 0 18 14 17 11 -1 19 -3 19 -5z
m-765 -22 c3 -5 -1 -10 -9 -10 -9 0 -16 5 -16 10 0 6 4 10 9 10 6 0 13 -4 16
-10z m1684 -6 c2 -2 -4 -4 -15 -4 -16 0 -17 -2 -4 -10 8 -5 10 -10 5 -10 -6 0
-18 9 -28 20 -17 20 -16 20 10 14 16 -4 30 -8 32 -10z m-999 -13 c0 -6 -4 -13
-10 -16 -5 -3 -10 1 -10 9 0 9 5 16 10 16 6 0 10 -4 10 -9z m146 -7 c-3 -20
-36 -41 -36 -23 0 6 8 18 18 25 22 17 21 17 18 -2z m189 -16 c6 -4 2 -8 -7 -8
-10 0 -18 7 -18 17 0 9 3 12 8 7 4 -5 12 -12 17 -16z m-1155 8 c0 -3 -4 -8
-10 -11 -5 -3 -10 -1 -10 4 0 6 5 11 10 11 6 0 10 -2 10 -4z m827 -26 c-1 -11
-5 -20 -9 -20 -4 0 -8 -8 -9 -17 0 -10 -3 -13 -5 -7 -5 11 12 64 20 64 3 0 4
-9 3 -20z m-220 -95 c96 -45 120 -61 115 -74 -5 -14 -4 -14 13 -1 17 14 18 14
6 -8 -12 -23 -31 -26 -34 -7 -1 11 -23 35 -31 35 -4 0 -25 12 -49 27 -23 15
-51 28 -62 30 -11 2 -25 10 -31 18 -6 8 -19 15 -28 15 -23 0 -116 48 -116 60
0 6 21 0 48 -13 26 -13 102 -50 169 -82z m-357 85 c0 -5 -4 -10 -9 -10 -6 0
-13 5 -16 10 -3 6 1 10 9 10 9 0 16 -4 16 -10z m807 -32 c-3 -8 -6 -5 -6 6 -1
11 2 17 5 13 3 -3 4 -12 1 -19z m-589 -53 c59 -31 74 -36 87 -25 10 8 15 9 15
1 0 -6 -6 -11 -12 -11 -7 -1 -2 -7 12 -15 33 -19 12 -19 -33 0 -20 8 -39 15
-42 15 -9 0 28 -36 49 -47 12 -7 15 -13 8 -17 -13 -8 -72 45 -72 65 0 11 -2
11 -10 -1 -8 -13 -10 -13 -10 1 0 17 -46 43 -60 34 -4 -3 -10 2 -14 10 -3 8
-13 15 -21 15 -9 0 -13 -4 -10 -10 3 -5 0 -7 -9 -4 -12 4 -12 9 -3 18 17 19
46 12 125 -29z m546 -20 c-4 -8 -8 -15 -10 -15 -2 0 -4 7 -4 15 0 8 4 15 10
15 5 0 7 -7 4 -15z m71 5 c3 -5 1 -10 -4 -10 -6 0 -11 5 -11 10 0 6 2 10 4 10
3 0 8 -4 11 -10z m175 -48 l25 -11 -30 0 c-16 0 -39 -1 -50 -3 -11 -2 -21 1
-22 6 -1 5 -7 12 -13 16 -18 11 61 4 90 -8z m558 -7 c-3 -3 -9 2 -12 12 -6 14
-5 15 5 6 7 -7 10 -15 7 -18z m-1273 5 c3 -6 -1 -7 -9 -4 -18 7 -21 14 -7 14
6 0 13 -4 16 -10z m594 7 c-2 -1 -13 -9 -24 -17 -19 -14 -19 -14 -6 3 7 9 18
17 24 17 6 0 8 -1 6 -3z m-2035 -22 c-4 -8 -8 -15 -10 -15 -2 0 -4 7 -4 15 0
8 4 15 10 15 5 0 7 -7 4 -15z m1526 -6 c0 -4 -7 -6 -15 -3 -8 4 -15 10 -15 15
0 4 7 6 15 3 8 -4 15 -10 15 -15z m214 6 c4 -13 2 -14 -14 -5 -23 13 -26 20
-6 20 8 0 16 -7 20 -15z m461 -5 c-27 -12 -43 -12 -25 0 8 5 22 9 30 9 10 0 8
-3 -5 -9z m-50 -10 c-3 -5 -1 -10 6 -10 7 0 10 -3 6 -6 -9 -9 -28 6 -22 17 4
5 8 9 11 9 3 0 2 -4 -1 -10z m103 1 c11 -7 10 -9 -3 -14 -10 -4 -14 -3 -9 4 4
8 -1 9 -17 4 -19 -5 -21 -4 -9 4 18 13 21 13 38 2z m-528 -11 c0 -5 -7 -7 -15
-4 -8 4 -15 8 -15 10 0 2 7 4 15 4 8 0 15 -4 15 -10z"/>
<path d="M818 723 c6 -2 18 -2 25 0 6 3 1 5 -13 5 -14 0 -19 -2 -12 -5z"/>
<path d="M298 573 c6 -2 18 -2 25 0 6 3 1 5 -13 5 -14 0 -19 -2 -12 -5z"/>
<path d="M1790 371 c0 -5 5 -13 10 -16 6 -3 10 -2 10 4 0 5 -4 13 -10 16 -5 3
-10 2 -10 -4z"/>
<path d="M1590 286 c0 -13 7 -29 15 -36 13 -11 14 -10 9 4 -5 12 -2 15 10 10
27 -10 19 22 -9 34 -23 11 -25 10 -25 -12z"/>
<path d="M1744 211 c4 -6 16 -16 28 -22 15 -8 18 -8 14 0 -4 6 -16 16 -28 22
-15 8 -18 8 -14 0z"/>
<path d="M1130 280 c0 -4 9 -10 20 -13 11 -3 20 -2 20 3 0 4 -9 10 -20 13 -11
3 -20 2 -20 -3z"/>
<path d="M1180 261 c0 -13 88 -42 95 -31 3 5 -10 12 -30 16 -19 3 -38 10 -41
15 -7 12 -24 12 -24 0z"/>
<path d="M2325 60 c-3 -6 1 -7 9 -4 18 7 21 14 7 14 -6 0 -13 -4 -16 -10z"/>
<path d="M1369 1358 c0 -7 0 -43 1 -80 1 -65 0 -68 -22 -68 -25 0 -25 0 -19
-199 1 -20 3 -21 16 -11 10 9 15 9 15 1 0 -6 4 -11 8 -11 4 0 9 86 11 190 1
105 0 190 -3 190 -3 0 -6 -6 -7 -12z m-9 -329 c0 -6 -4 -7 -10 -4 -5 3 -10 11
-10 16 0 6 5 7 10 4 6 -3 10 -11 10 -16z"/>
<path d="M150 1290 c0 -5 7 -10 15 -10 8 0 15 5 15 10 0 6 -7 10 -15 10 -8 0
-15 -4 -15 -10z"/>
<path d="M442 1025 c0 -16 2 -22 5 -12 2 9 2 23 0 30 -3 6 -5 -1 -5 -18z"/>
<path d="M442 965 c0 -16 2 -22 5 -12 2 9 2 23 0 30 -3 6 -5 -1 -5 -18z"/>
<path d="M1318 963 c6 -2 18 -2 25 0 6 3 1 5 -13 5 -14 0 -19 -2 -12 -5z"/>
<path d="M1115 850 c-3 -5 3 -10 14 -10 11 0 23 5 26 10 3 6 -3 10 -14 10 -11
0 -23 -4 -26 -10z"/>
<path d="M1860 840 c0 -5 5 -10 11 -10 5 0 7 5 4 10 -3 6 -8 10 -11 10 -2 0
-4 -4 -4 -10z"/>
<path d="M2907 822 c1 -8 3 -18 3 -23 0 -5 5 -9 11 -9 5 0 7 5 3 12 -5 8 5 9
34 5 37 -4 42 -3 42 14 0 21 -11 23 -57 10 -18 -5 -34 -6 -36 -3 -2 4 -2 1 0
-6z"/>
<path d="M2496 821 c-3 -5 1 -11 9 -15 8 -3 15 -1 15 4 0 13 -18 22 -24 11z"/>
<path d="M1 804 c0 -11 3 -14 6 -6 3 7 2 16 -1 19 -3 4 -6 -2 -5 -13z"/>
<path d="M80 811 c0 -6 10 -8 21 -6 33 6 36 15 6 15 -15 0 -27 -4 -27 -9z"/>
<path d="M2330 805 c-5 -7 -7 -14 -4 -17 9 -10 44 4 44 16 0 16 -27 16 -40 1z"/>
<path d="M1820 777 c0 -23 5 -34 15 -34 8 0 15 4 15 9 0 4 -4 8 -9 8 -4 0 -6
11 -3 25 2 15 0 25 -7 25 -6 0 -11 -15 -11 -33z"/>
<path d="M30 789 c0 -7 -8 -18 -17 -25 -16 -12 -15 -13 10 -14 22 0 27 4 27
25 0 14 -4 25 -10 25 -5 0 -10 -5 -10 -11z"/>
<path d="M2936 785 c-19 -15 -19 -15 3 -15 12 0 19 4 16 10 -3 6 -3 10 2 10
13 0 30 -14 36 -30 4 -10 6 -8 6 8 1 12 -3 22 -8 22 -5 0 -15 2 -23 5 -7 2
-22 -2 -32 -10z"/>
<path d="M1990 752 c0 -5 7 -9 15 -9 8 0 15 4 15 9 0 4 -7 8 -15 8 -8 0 -15
-4 -15 -8z"/>
<path d="M1773 723 c9 -2 23 -2 30 0 6 3 -1 5 -18 5 -16 0 -22 -2 -12 -5z"/>
<path d="M2 650 c0 -19 2 -27 5 -17 2 9 2 25 0 35 -3 9 -5 1 -5 -18z"/>
<path d="M1450 629 c0 -5 5 -7 10 -4 6 3 10 8 10 11 0 2 -4 4 -10 4 -5 0 -10
-5 -10 -11z"/>
<path d="M2645 620 c-3 -5 1 -10 9 -10 8 0 18 5 21 10 3 6 -1 10 -9 10 -8 0
-18 -4 -21 -10z"/>
<path d="M2811 596 c-8 -9 -11 -19 -7 -23 9 -9 29 13 24 27 -2 8 -8 7 -17 -4z"/>
<path d="M2860 600 c-12 -8 -11 -10 8 -10 12 0 22 5 22 10 0 13 -11 13 -30 0z"/>
<path d="M2210 569 c0 -5 5 -7 10 -4 6 3 10 8 10 11 0 2 -4 4 -10 4 -5 0 -10
-5 -10 -11z"/>
<path d="M2643 565 c0 -8 7 -15 15 -15 12 0 12 3 2 15 -7 8 -13 15 -15 15 -1
0 -2 -7 -2 -15z"/>
</g>
</svg>
